<mxfile host="drawio-plugin" modified="2021-04-19T11:25:20.848Z" agent="5.0 (Windows NT 6.2; Win64; x64) AppleWebKit/537.36 (KHTML, like Gecko) Chrome/87.0.4280.141 Safari/537.36" etag="j5uaUsiX7m8Oa88NoJ4n" version="13.7.9" type="embed"><diagram id="7N2clspCVzqE43VNQIIF" name="Page-1"><mxGraphModel dx="1462" dy="1476" grid="0" gridSize="10" guides="1" tooltips="1" connect="1" arrows="1" fold="1" page="1" pageScale="1" pageWidth="850" pageHeight="1100" math="0" shadow="0"><root><mxCell id="0"/><mxCell id="1" parent="0"/><mxCell id="C_QWCQGpTXDpGbuhT_bK-85" value="" style="ellipse;shape=cloud;whiteSpace=wrap;html=1;rounded=0;glass=1;sketch=0;fontSize=19;" parent="1" vertex="1"><mxGeometry x="-267" y="280" width="120" height="80" as="geometry"/></mxCell><mxCell id="C_QWCQGpTXDpGbuhT_bK-1" value="" style="rounded=0;whiteSpace=wrap;html=1;labelBorderColor=none;" parent="1" vertex="1"><mxGeometry x="345" y="490" width="130" height="60" as="geometry"/></mxCell><mxCell id="C_QWCQGpTXDpGbuhT_bK-2" value="" style="rounded=0;whiteSpace=wrap;html=1;fillColor=#e1d5e7;strokeColor=#9673a6;" parent="1" vertex="1"><mxGeometry x="45" y="140" width="120" height="60" as="geometry"/></mxCell><mxCell id="C_QWCQGpTXDpGbuhT_bK-3" value="" style="rounded=0;whiteSpace=wrap;html=1;" parent="1" vertex="1"><mxGeometry x="565" y="490" width="120" height="60" as="geometry"/></mxCell><mxCell id="C_QWCQGpTXDpGbuhT_bK-4" value="" style="rounded=0;whiteSpace=wrap;html=1;fillColor=#e1d5e7;strokeColor=#9673a6;" parent="1" vertex="1"><mxGeometry x="230" y="140" width="170" height="60" as="geometry"/></mxCell><mxCell id="C_QWCQGpTXDpGbuhT_bK-6" value="" style="rounded=0;whiteSpace=wrap;html=1;fillColor=#fff2cc;strokeColor=#d6b656;" parent="1" vertex="1"><mxGeometry x="50" y="280" width="120" height="60" as="geometry"/></mxCell><mxCell id="C_QWCQGpTXDpGbuhT_bK-8" value="Character" style="text;html=1;strokeColor=none;fillColor=none;align=center;verticalAlign=middle;whiteSpace=wrap;rounded=0;fontSize=19;" parent="1" vertex="1"><mxGeometry x="365" y="510" width="90" height="20" as="geometry"/></mxCell><mxCell id="C_QWCQGpTXDpGbuhT_bK-10" value="Magician" style="text;html=1;strokeColor=none;fillColor=none;align=center;verticalAlign=middle;whiteSpace=wrap;rounded=0;fontSize=19;" parent="1" vertex="1"><mxGeometry x="580" y="510" width="90" height="20" as="geometry"/></mxCell><mxCell id="C_QWCQGpTXDpGbuhT_bK-11" value="" style="endArrow=classic;html=1;fontSize=19;exitX=1;exitY=0.5;exitDx=0;exitDy=0;entryX=0;entryY=0.5;entryDx=0;entryDy=0;" parent="1" source="C_QWCQGpTXDpGbuhT_bK-1" target="C_QWCQGpTXDpGbuhT_bK-3" edge="1"><mxGeometry width="50" height="50" relative="1" as="geometry"><mxPoint x="280" y="280" as="sourcePoint"/><mxPoint x="330" y="230" as="targetPoint"/></mxGeometry></mxCell><mxCell id="C_QWCQGpTXDpGbuhT_bK-12" value="IMagic" style="text;html=1;strokeColor=none;fillColor=none;align=center;verticalAlign=middle;whiteSpace=wrap;rounded=0;fontSize=19;" parent="1" vertex="1"><mxGeometry x="60" y="160" width="80" height="20" as="geometry"/></mxCell><mxCell id="C_QWCQGpTXDpGbuhT_bK-13" value="IMagicPowered" style="text;html=1;strokeColor=none;fillColor=none;align=center;verticalAlign=middle;whiteSpace=wrap;rounded=0;fontSize=19;" parent="1" vertex="1"><mxGeometry x="295" y="160" width="40" height="20" as="geometry"/></mxCell><mxCell id="C_QWCQGpTXDpGbuhT_bK-14" value="" style="endArrow=classic;html=1;fontSize=19;exitX=1;exitY=0.5;exitDx=0;exitDy=0;entryX=0;entryY=0.5;entryDx=0;entryDy=0;" parent="1" source="C_QWCQGpTXDpGbuhT_bK-2" target="C_QWCQGpTXDpGbuhT_bK-4" edge="1"><mxGeometry relative="1" as="geometry"><mxPoint x="260" y="260" as="sourcePoint"/><mxPoint x="360" y="260" as="targetPoint"/></mxGeometry></mxCell><mxCell id="C_QWCQGpTXDpGbuhT_bK-16" value="Spell" style="text;html=1;strokeColor=none;fillColor=none;align=center;verticalAlign=middle;whiteSpace=wrap;rounded=0;fontSize=19;" parent="1" vertex="1"><mxGeometry x="65" y="300" width="70" height="20" as="geometry"/></mxCell><mxCell id="C_QWCQGpTXDpGbuhT_bK-18" value="" style="endArrow=classic;html=1;fontSize=19;exitX=0.5;exitY=1;exitDx=0;exitDy=0;" parent="1" source="C_QWCQGpTXDpGbuhT_bK-2" edge="1"><mxGeometry width="50" height="50" relative="1" as="geometry"><mxPoint x="280" y="280" as="sourcePoint"/><mxPoint x="105" y="280" as="targetPoint"/></mxGeometry></mxCell><mxCell id="C_QWCQGpTXDpGbuhT_bK-19" value="" style="rounded=0;whiteSpace=wrap;html=1;" parent="1" vertex="1"><mxGeometry y="610" width="120" height="60" as="geometry"/></mxCell><mxCell id="C_QWCQGpTXDpGbuhT_bK-20" value="" style="rounded=0;whiteSpace=wrap;html=1;fillColor=#fff2cc;strokeColor=#d6b656;" parent="1" vertex="1"><mxGeometry x="160" y="380" width="150" height="60" as="geometry"/></mxCell><mxCell id="C_QWCQGpTXDpGbuhT_bK-21" value="" style="rounded=0;whiteSpace=wrap;html=1;fillColor=#fff2cc;strokeColor=#d6b656;" parent="1" vertex="1"><mxGeometry x="-80" y="380" width="190" height="60" as="geometry"/></mxCell><mxCell id="C_QWCQGpTXDpGbuhT_bK-22" value="" style="rounded=0;whiteSpace=wrap;html=1;" parent="1" vertex="1"><mxGeometry x="-90" y="540" width="120" height="60" as="geometry"/></mxCell><mxCell id="C_QWCQGpTXDpGbuhT_bK-23" value="" style="rounded=0;whiteSpace=wrap;html=1;" parent="1" vertex="1"><mxGeometry x="-180" y="470" width="120" height="60" as="geometry"/></mxCell><mxCell id="C_QWCQGpTXDpGbuhT_bK-25" value="RemoveStateSpell" style="text;html=1;strokeColor=none;fillColor=none;align=center;verticalAlign=middle;whiteSpace=wrap;rounded=0;fontSize=19;" parent="1" vertex="1"><mxGeometry x="-10" y="400" width="40" height="20" as="geometry"/></mxCell><mxCell id="C_QWCQGpTXDpGbuhT_bK-26" value="AddStateSpell" style="text;html=1;strokeColor=none;fillColor=none;align=center;verticalAlign=middle;whiteSpace=wrap;rounded=0;fontSize=19;" parent="1" vertex="1"><mxGeometry x="215" y="400" width="40" height="20" as="geometry"/></mxCell><mxCell id="C_QWCQGpTXDpGbuhT_bK-27" value="Heal" style="text;html=1;strokeColor=none;fillColor=none;align=center;verticalAlign=middle;whiteSpace=wrap;rounded=0;fontSize=19;" parent="1" vertex="1"><mxGeometry x="-140" y="490" width="40" height="20" as="geometry"/></mxCell><mxCell id="C_QWCQGpTXDpGbuhT_bK-28" value="Antidote" style="text;html=1;strokeColor=none;fillColor=none;align=center;verticalAlign=middle;whiteSpace=wrap;rounded=0;fontSize=19;" parent="1" vertex="1"><mxGeometry x="-50" y="560" width="40" height="20" as="geometry"/></mxCell><mxCell id="C_QWCQGpTXDpGbuhT_bK-29" value="Unfreeze" style="text;html=1;strokeColor=none;fillColor=none;align=center;verticalAlign=middle;whiteSpace=wrap;rounded=0;fontSize=19;" parent="1" vertex="1"><mxGeometry x="10" y="630" width="110" height="20" as="geometry"/></mxCell><mxCell id="C_QWCQGpTXDpGbuhT_bK-30" value="" style="endArrow=classic;html=1;fontSize=19;exitX=0.25;exitY=1;exitDx=0;exitDy=0;entryX=0.5;entryY=0;entryDx=0;entryDy=0;" parent="1" source="C_QWCQGpTXDpGbuhT_bK-6" target="C_QWCQGpTXDpGbuhT_bK-21" edge="1"><mxGeometry width="50" height="50" relative="1" as="geometry"><mxPoint x="70" y="320" as="sourcePoint"/><mxPoint x="120" y="270" as="targetPoint"/></mxGeometry></mxCell><mxCell id="C_QWCQGpTXDpGbuhT_bK-31" value="" style="endArrow=classic;html=1;fontSize=19;entryX=0.5;entryY=0;entryDx=0;entryDy=0;exitX=1;exitY=1;exitDx=0;exitDy=0;" parent="1" source="C_QWCQGpTXDpGbuhT_bK-6" target="C_QWCQGpTXDpGbuhT_bK-20" edge="1"><mxGeometry width="50" height="50" relative="1" as="geometry"><mxPoint x="70" y="320" as="sourcePoint"/><mxPoint x="120" y="270" as="targetPoint"/></mxGeometry></mxCell><mxCell id="C_QWCQGpTXDpGbuhT_bK-32" value="" style="endArrow=classic;html=1;fontSize=19;exitX=0.25;exitY=1;exitDx=0;exitDy=0;entryX=0.25;entryY=0;entryDx=0;entryDy=0;" parent="1" source="C_QWCQGpTXDpGbuhT_bK-21" target="C_QWCQGpTXDpGbuhT_bK-23" edge="1"><mxGeometry width="50" height="50" relative="1" as="geometry"><mxPoint x="70" y="320" as="sourcePoint"/><mxPoint x="120" y="270" as="targetPoint"/></mxGeometry></mxCell><mxCell id="C_QWCQGpTXDpGbuhT_bK-33" value="" style="endArrow=classic;html=1;fontSize=19;exitX=0.5;exitY=1;exitDx=0;exitDy=0;entryX=0.5;entryY=0;entryDx=0;entryDy=0;" parent="1" source="C_QWCQGpTXDpGbuhT_bK-21" target="C_QWCQGpTXDpGbuhT_bK-22" edge="1"><mxGeometry width="50" height="50" relative="1" as="geometry"><mxPoint x="70" y="370" as="sourcePoint"/><mxPoint x="120" y="320" as="targetPoint"/></mxGeometry></mxCell><mxCell id="C_QWCQGpTXDpGbuhT_bK-34" value="" style="endArrow=classic;html=1;fontSize=19;exitX=0.75;exitY=1;exitDx=0;exitDy=0;entryX=0.405;entryY=-0.937;entryDx=0;entryDy=0;entryPerimeter=0;" parent="1" source="C_QWCQGpTXDpGbuhT_bK-21" target="C_QWCQGpTXDpGbuhT_bK-29" edge="1"><mxGeometry width="50" height="50" relative="1" as="geometry"><mxPoint x="70" y="370" as="sourcePoint"/><mxPoint x="78" y="605" as="targetPoint"/></mxGeometry></mxCell><mxCell id="C_QWCQGpTXDpGbuhT_bK-35" value="" style="rounded=0;whiteSpace=wrap;html=1;" parent="1" vertex="1"><mxGeometry x="290" y="280" width="120" height="60" as="geometry"/></mxCell><mxCell id="C_QWCQGpTXDpGbuhT_bK-36" value="" style="rounded=0;whiteSpace=wrap;html=1;" parent="1" vertex="1"><mxGeometry x="-120" y="200" width="120" height="60" as="geometry"/></mxCell><mxCell id="C_QWCQGpTXDpGbuhT_bK-37" value="" style="rounded=0;whiteSpace=wrap;html=1;" parent="1" vertex="1"><mxGeometry x="-360" y="80" width="120" height="60" as="geometry"/></mxCell><mxCell id="C_QWCQGpTXDpGbuhT_bK-38" value="" style="rounded=0;whiteSpace=wrap;html=1;fillColor=#fff2cc;strokeColor=#d6b656;" parent="1" vertex="1"><mxGeometry x="40" y="30" width="120" height="60" as="geometry"/></mxCell><mxCell id="C_QWCQGpTXDpGbuhT_bK-39" value="" style="endArrow=classic;html=1;fontSize=19;exitX=1;exitY=0.5;exitDx=0;exitDy=0;entryX=0;entryY=0.5;entryDx=0;entryDy=0;" parent="1" source="C_QWCQGpTXDpGbuhT_bK-6" target="C_QWCQGpTXDpGbuhT_bK-35" edge="1"><mxGeometry width="50" height="50" relative="1" as="geometry"><mxPoint x="70" y="360" as="sourcePoint"/><mxPoint x="120" y="310" as="targetPoint"/></mxGeometry></mxCell><mxCell id="C_QWCQGpTXDpGbuhT_bK-40" value="" style="endArrow=classic;html=1;fontSize=19;exitX=0.75;exitY=1;exitDx=0;exitDy=0;entryX=0.614;entryY=-0.014;entryDx=0;entryDy=0;entryPerimeter=0;" parent="1" source="C_QWCQGpTXDpGbuhT_bK-4" target="C_QWCQGpTXDpGbuhT_bK-35" edge="1"><mxGeometry width="50" height="50" relative="1" as="geometry"><mxPoint x="70" y="360" as="sourcePoint"/><mxPoint x="120" y="310" as="targetPoint"/></mxGeometry></mxCell><mxCell id="C_QWCQGpTXDpGbuhT_bK-41" value="AddHealth" style="text;html=1;strokeColor=none;fillColor=none;align=center;verticalAlign=middle;whiteSpace=wrap;rounded=0;fontSize=19;" parent="1" vertex="1"><mxGeometry x="327.5" y="300" width="45" height="20" as="geometry"/></mxCell><mxCell id="C_QWCQGpTXDpGbuhT_bK-42" value="Revive" style="text;html=1;strokeColor=none;fillColor=none;align=center;verticalAlign=middle;whiteSpace=wrap;rounded=0;fontSize=19;" parent="1" vertex="1"><mxGeometry x="-90" y="220" width="40" height="20" as="geometry"/></mxCell><mxCell id="C_QWCQGpTXDpGbuhT_bK-43" value="" style="endArrow=classic;html=1;fontSize=19;exitX=0;exitY=0.25;exitDx=0;exitDy=0;entryX=0.5;entryY=1;entryDx=0;entryDy=0;" parent="1" source="C_QWCQGpTXDpGbuhT_bK-6" target="C_QWCQGpTXDpGbuhT_bK-36" edge="1"><mxGeometry width="50" height="50" relative="1" as="geometry"><mxPoint x="70" y="360" as="sourcePoint"/><mxPoint x="120" y="310" as="targetPoint"/></mxGeometry></mxCell><mxCell id="C_QWCQGpTXDpGbuhT_bK-47" value="" style="rounded=0;whiteSpace=wrap;html=1;fillColor=#fff2cc;strokeColor=#d6b656;" parent="1" vertex="1"><mxGeometry x="-190" y="30" width="120" height="60" as="geometry"/></mxCell><mxCell id="C_QWCQGpTXDpGbuhT_bK-48" value="" style="rounded=0;whiteSpace=wrap;html=1;fillColor=#fff2cc;strokeColor=#d6b656;" parent="1" vertex="1"><mxGeometry x="210" y="30" width="230" height="60" as="geometry"/></mxCell><mxCell id="C_QWCQGpTXDpGbuhT_bK-49" value="" style="rounded=0;whiteSpace=wrap;html=1;fillColor=#e1d5e7;strokeColor=#9673a6;" parent="1" vertex="1"><mxGeometry x="-590" y="270" width="120" height="60" as="geometry"/></mxCell><mxCell id="C_QWCQGpTXDpGbuhT_bK-51" value="" style="rounded=0;whiteSpace=wrap;html=1;" parent="1" vertex="1"><mxGeometry x="-360" y="-30" width="120" height="60" as="geometry"/></mxCell><mxCell id="C_QWCQGpTXDpGbuhT_bK-52" value="PoweredRenewableArtifact" style="text;html=1;strokeColor=none;fillColor=none;align=center;verticalAlign=middle;whiteSpace=wrap;rounded=0;fontSize=19;" parent="1" vertex="1"><mxGeometry x="305" y="50" width="40" height="20" as="geometry"/></mxCell><mxCell id="C_QWCQGpTXDpGbuhT_bK-54" value="" style="endArrow=classic;html=1;fontSize=19;exitX=0.5;exitY=0;exitDx=0;exitDy=0;entryX=0.5;entryY=1;entryDx=0;entryDy=0;" parent="1" source="C_QWCQGpTXDpGbuhT_bK-4" target="C_QWCQGpTXDpGbuhT_bK-48" edge="1"><mxGeometry width="50" height="50" relative="1" as="geometry"><mxPoint x="340" y="410" as="sourcePoint"/><mxPoint x="390" y="360" as="targetPoint"/></mxGeometry></mxCell><mxCell id="C_QWCQGpTXDpGbuhT_bK-55" value="" style="endArrow=classic;html=1;fontSize=19;exitX=1;exitY=0.5;exitDx=0;exitDy=0;entryX=0;entryY=0.5;entryDx=0;entryDy=0;" parent="1" source="C_QWCQGpTXDpGbuhT_bK-38" target="C_QWCQGpTXDpGbuhT_bK-48" edge="1"><mxGeometry width="50" height="50" relative="1" as="geometry"><mxPoint x="370" y="420" as="sourcePoint"/><mxPoint x="460" y="390" as="targetPoint"/></mxGeometry></mxCell><mxCell id="C_QWCQGpTXDpGbuhT_bK-56" value="" style="endArrow=classic;html=1;fontSize=19;exitX=0.5;exitY=0;exitDx=0;exitDy=0;entryX=0.621;entryY=1;entryDx=0;entryDy=0;entryPerimeter=0;" parent="1" source="C_QWCQGpTXDpGbuhT_bK-2" target="C_QWCQGpTXDpGbuhT_bK-38" edge="1"><mxGeometry width="50" height="50" relative="1" as="geometry"><mxPoint x="280" y="410" as="sourcePoint"/><mxPoint x="105" y="100" as="targetPoint"/></mxGeometry></mxCell><mxCell id="C_QWCQGpTXDpGbuhT_bK-57" value="Artifact" style="text;html=1;strokeColor=none;fillColor=none;align=center;verticalAlign=middle;whiteSpace=wrap;rounded=0;fontSize=19;" parent="1" vertex="1"><mxGeometry x="45" y="50" width="95" height="20" as="geometry"/></mxCell><mxCell id="C_QWCQGpTXDpGbuhT_bK-58" value="Water" style="text;html=1;strokeColor=none;fillColor=none;align=center;verticalAlign=middle;whiteSpace=wrap;rounded=0;fontSize=19;" parent="1" vertex="1"><mxGeometry x="-170" y="50" width="70" height="20" as="geometry"/></mxCell><mxCell id="C_QWCQGpTXDpGbuhT_bK-59" value="" style="rounded=0;whiteSpace=wrap;html=1;" parent="1" vertex="1"><mxGeometry x="295" y="-90" width="120" height="60" as="geometry"/></mxCell><mxCell id="C_QWCQGpTXDpGbuhT_bK-60" value="" style="rounded=0;whiteSpace=wrap;html=1;" parent="1" vertex="1"><mxGeometry x="450" y="-90" width="120" height="60" as="geometry"/></mxCell><mxCell id="C_QWCQGpTXDpGbuhT_bK-61" value="" style="rounded=0;whiteSpace=wrap;html=1;" parent="1" vertex="1"><mxGeometry x="-50" y="-110" width="120" height="60" as="geometry"/></mxCell><mxCell id="C_QWCQGpTXDpGbuhT_bK-62" value="" style="rounded=0;whiteSpace=wrap;html=1;" parent="1" vertex="1"><mxGeometry x="104" y="-110" width="134" height="60" as="geometry"/></mxCell><mxCell id="C_QWCQGpTXDpGbuhT_bK-63" value="" style="endArrow=classic;html=1;fontSize=19;entryX=1;entryY=0.5;entryDx=0;entryDy=0;" parent="1" target="C_QWCQGpTXDpGbuhT_bK-37" edge="1"><mxGeometry width="50" height="50" relative="1" as="geometry"><mxPoint x="-190" y="70" as="sourcePoint"/><mxPoint x="330" y="250" as="targetPoint"/></mxGeometry></mxCell><mxCell id="C_QWCQGpTXDpGbuhT_bK-64" value="" style="endArrow=classic;html=1;fontSize=19;entryX=1;entryY=0.5;entryDx=0;entryDy=0;" parent="1" target="C_QWCQGpTXDpGbuhT_bK-51" edge="1"><mxGeometry width="50" height="50" relative="1" as="geometry"><mxPoint x="-190" y="50" as="sourcePoint"/><mxPoint x="330" y="250" as="targetPoint"/></mxGeometry></mxCell><mxCell id="C_QWCQGpTXDpGbuhT_bK-65" value="" style="endArrow=classic;html=1;fontSize=19;exitX=0;exitY=0.5;exitDx=0;exitDy=0;entryX=1;entryY=0.5;entryDx=0;entryDy=0;" parent="1" source="C_QWCQGpTXDpGbuhT_bK-38" target="C_QWCQGpTXDpGbuhT_bK-47" edge="1"><mxGeometry width="50" height="50" relative="1" as="geometry"><mxPoint x="280" y="300" as="sourcePoint"/><mxPoint x="330" y="250" as="targetPoint"/></mxGeometry></mxCell><mxCell id="C_QWCQGpTXDpGbuhT_bK-66" value="" style="endArrow=classic;html=1;fontSize=19;exitX=0.5;exitY=0;exitDx=0;exitDy=0;entryX=0.25;entryY=1;entryDx=0;entryDy=0;" parent="1" source="C_QWCQGpTXDpGbuhT_bK-38" target="C_QWCQGpTXDpGbuhT_bK-62" edge="1"><mxGeometry width="50" height="50" relative="1" as="geometry"><mxPoint x="280" y="300" as="sourcePoint"/><mxPoint x="330" y="250" as="targetPoint"/></mxGeometry></mxCell><mxCell id="C_QWCQGpTXDpGbuhT_bK-67" value="" style="endArrow=classic;html=1;fontSize=19;entryX=0.5;entryY=1;entryDx=0;entryDy=0;exitX=0.364;exitY=0.028;exitDx=0;exitDy=0;exitPerimeter=0;" parent="1" source="C_QWCQGpTXDpGbuhT_bK-38" target="C_QWCQGpTXDpGbuhT_bK-61" edge="1"><mxGeometry width="50" height="50" relative="1" as="geometry"><mxPoint x="57" y="27" as="sourcePoint"/><mxPoint x="330" y="250" as="targetPoint"/></mxGeometry></mxCell><mxCell id="C_QWCQGpTXDpGbuhT_bK-68" value="" style="endArrow=classic;html=1;fontSize=19;exitX=0.5;exitY=0;exitDx=0;exitDy=0;entryX=0.5;entryY=1;entryDx=0;entryDy=0;" parent="1" source="C_QWCQGpTXDpGbuhT_bK-48" target="C_QWCQGpTXDpGbuhT_bK-59" edge="1"><mxGeometry width="50" height="50" relative="1" as="geometry"><mxPoint x="280" y="300" as="sourcePoint"/><mxPoint x="330" y="250" as="targetPoint"/></mxGeometry></mxCell><mxCell id="C_QWCQGpTXDpGbuhT_bK-69" value="" style="endArrow=classic;html=1;fontSize=19;entryX=0.25;entryY=1;entryDx=0;entryDy=0;exitX=0.75;exitY=0;exitDx=0;exitDy=0;" parent="1" source="C_QWCQGpTXDpGbuhT_bK-48" target="C_QWCQGpTXDpGbuhT_bK-60" edge="1"><mxGeometry width="50" height="50" relative="1" as="geometry"><mxPoint x="340" y="37" as="sourcePoint"/><mxPoint x="440" as="targetPoint"/></mxGeometry></mxCell><mxCell id="C_QWCQGpTXDpGbuhT_bK-70" value="LivingWater" style="text;html=1;strokeColor=none;fillColor=none;align=center;verticalAlign=middle;whiteSpace=wrap;rounded=0;fontSize=19;" parent="1" vertex="1"><mxGeometry x="-320" y="-10" width="40" height="20" as="geometry"/></mxCell><mxCell id="C_QWCQGpTXDpGbuhT_bK-71" value="DeadWater" style="text;html=1;strokeColor=none;fillColor=none;align=center;verticalAlign=middle;whiteSpace=wrap;rounded=0;fontSize=19;" parent="1" vertex="1"><mxGeometry x="-320" y="100" width="40" height="20" as="geometry"/></mxCell><mxCell id="C_QWCQGpTXDpGbuhT_bK-72" value="VasiliskEye" style="text;html=1;strokeColor=none;fillColor=none;align=center;verticalAlign=middle;whiteSpace=wrap;rounded=0;fontSize=19;" parent="1" vertex="1"><mxGeometry x="-10" y="-90" width="40" height="20" as="geometry"/></mxCell><mxCell id="C_QWCQGpTXDpGbuhT_bK-73" value="FrogLegDecoct" style="text;html=1;strokeColor=none;fillColor=none;align=center;verticalAlign=middle;whiteSpace=wrap;rounded=0;fontSize=19;" parent="1" vertex="1"><mxGeometry x="150" y="-90" width="40" height="20" as="geometry"/></mxCell><mxCell id="C_QWCQGpTXDpGbuhT_bK-74" value="PoisonedSpit" style="text;html=1;strokeColor=none;fillColor=none;align=center;verticalAlign=middle;whiteSpace=wrap;rounded=0;fontSize=19;" parent="1" vertex="1"><mxGeometry x="332.5" y="-70" width="40" height="20" as="geometry"/></mxCell><mxCell id="C_QWCQGpTXDpGbuhT_bK-75" value="Thunder" style="text;html=1;strokeColor=none;fillColor=none;align=center;verticalAlign=middle;whiteSpace=wrap;rounded=0;fontSize=19;" parent="1" vertex="1"><mxGeometry x="460" y="-70" width="100" height="20" as="geometry"/></mxCell><mxCell id="C_QWCQGpTXDpGbuhT_bK-77" value="" style="rounded=0;whiteSpace=wrap;html=1;fillColor=#fff2cc;strokeColor=#d6b656;" parent="1" vertex="1"><mxGeometry x="-590" y="370" width="120" height="60" as="geometry"/></mxCell><mxCell id="C_QWCQGpTXDpGbuhT_bK-78" value="" style="rounded=0;whiteSpace=wrap;html=1;" parent="1" vertex="1"><mxGeometry x="-590" y="470" width="120" height="60" as="geometry"/></mxCell><mxCell id="C_QWCQGpTXDpGbuhT_bK-79" value="Interface" style="text;html=1;strokeColor=none;fillColor=none;align=center;verticalAlign=middle;whiteSpace=wrap;rounded=0;fontSize=19;" parent="1" vertex="1"><mxGeometry x="-550" y="290" width="40" height="20" as="geometry"/></mxCell><mxCell id="C_QWCQGpTXDpGbuhT_bK-80" value="Abstract" style="text;html=1;strokeColor=none;fillColor=none;align=center;verticalAlign=middle;whiteSpace=wrap;rounded=0;fontSize=19;" parent="1" vertex="1"><mxGeometry x="-550" y="390" width="40" height="20" as="geometry"/></mxCell><mxCell id="C_QWCQGpTXDpGbuhT_bK-82" value="Instance" style="text;html=1;strokeColor=none;fillColor=none;align=center;verticalAlign=middle;whiteSpace=wrap;rounded=0;fontSize=19;" parent="1" vertex="1"><mxGeometry x="-550" y="490" width="40" height="20" as="geometry"/></mxCell><mxCell id="C_QWCQGpTXDpGbuhT_bK-84" value="Armor" style="text;html=1;strokeColor=none;fillColor=none;align=center;verticalAlign=middle;whiteSpace=wrap;rounded=0;fontSize=19;" parent="1" vertex="1"><mxGeometry x="-220" y="310" width="40" height="20" as="geometry"/></mxCell><mxCell id="C_QWCQGpTXDpGbuhT_bK-86" value="" style="endArrow=classic;html=1;fontSize=19;exitX=0;exitY=0.5;exitDx=0;exitDy=0;entryX=0.875;entryY=0.5;entryDx=0;entryDy=0;entryPerimeter=0;" parent="1" source="C_QWCQGpTXDpGbuhT_bK-6" target="C_QWCQGpTXDpGbuhT_bK-85" edge="1"><mxGeometry width="50" height="50" relative="1" as="geometry"><mxPoint x="15" y="277" as="sourcePoint"/><mxPoint x="65" y="227" as="targetPoint"/></mxGeometry></mxCell></root></mxGraphModel></diagram></mxfile>